<svg width="24" height="24" viewBox="0 0 24 24" fill="none" xmlns="http://www.w3.org/2000/svg">
<path d="M18.8305 10.6896C19.2424 9.15248 19.0268 7.51475 18.2311 6.13665C17.4355 4.75854 16.1249 3.75295 14.5879 3.34109C13.0508 2.92923 11.4131 3.14484 10.0349 3.94049C8.65684 4.73614 7.65125 6.04665 7.23939 7.58373C5.42766 14.3452 2.01225 15.5006 2.01225 15.5006L19.3989 20.1593C19.3989 20.1593 17.0188 17.451 18.8305 10.6896Z" stroke="#051443" stroke-width="1.5" stroke-linecap="round" stroke-linejoin="round"/>
<path d="M11.3421 22.1416C11.0938 22.3889 10.785 22.5665 10.4464 22.6569C10.1079 22.7472 9.75159 22.747 9.41315 22.6564C9.07471 22.5657 8.76603 22.3877 8.51802 22.1402C8.27001 21.8927 8.09138 21.5843 8 21.2461" stroke="#051443" stroke-width="1.5" stroke-linecap="round" stroke-linejoin="round"/>
</svg>
