<svg width="200" height="60" viewBox="0 0 200 60" fill="none" xmlns="http://www.w3.org/2000/svg">
<path fill-rule="evenodd" clip-rule="evenodd" d="M16 19V41.4071H27.8166C31.0705 41.4071 33.8106 38.539 33.8106 35.1331C33.8106 32.6235 32.4405 30.1139 29.5292 29.0384C31.0705 27.9628 31.9268 26.3495 31.9268 24.3777C31.9268 21.3303 29.7004 19 26.7891 19H16ZM36.7219 19V32.4443C36.7219 38.3597 40.147 41.9449 46.141 41.9449C51.9636 41.9449 55.3887 38.3597 55.3887 32.4443V19H50.4223V32.265C50.4223 35.4916 48.881 37.2842 46.141 37.2842C43.4009 37.2842 41.8596 35.4916 41.8596 32.265V19H36.7219ZM59.3276 19V41.4071H64.1228V32.8028H68.0616L72.8568 41.5864H78.337L73.1993 32.265C75.4256 31.1895 76.9669 28.6799 76.9669 26.1703C76.9669 22.4059 74.0556 19.3585 70.4592 19.3585L59.3276 19ZM80.9058 19V41.4071H92.7224C95.9763 41.4071 98.7164 38.539 98.7164 35.1331C98.7164 32.6235 97.3463 30.1139 94.435 29.0384C95.9763 27.9628 96.8326 26.3495 96.8326 24.3777C96.8326 21.3303 94.6062 19 91.6949 19H80.9058ZM101.799 19V41.4071H118.239V36.9257H106.765V32.265H116.356V27.7836H106.765V23.3022H117.897V19H101.799ZM122.007 19V41.4071H126.802V32.8028H130.741L135.536 41.5864H141.016L135.879 32.265C138.105 31.1895 139.646 28.6799 139.646 26.1703C139.646 22.4059 136.735 19.3585 133.139 19.3585L122.007 19ZM143.585 19V41.4071H148.38V32.8028H152.319L157.114 41.5864H162.423L157.286 32.265C159.512 31.1895 161.053 28.6799 161.053 26.1703C161.053 22.4059 158.142 19.3585 154.546 19.3585L143.585 19ZM161.567 19L170.13 32.265V41.4071H175.439V32.4443L184.002 19.1793H177.836L172.699 26.708L167.732 19H161.567ZM20.9664 23.3022H24.9053C26.1041 23.3022 27.1316 24.3777 27.1316 25.6325C27.1316 26.8873 26.1041 27.9628 24.9053 27.9628H20.9664V23.3022ZM85.701 23.3022H89.6398C90.8386 23.3022 91.8661 24.3777 91.8661 25.6325C91.8661 26.8873 90.8386 27.9628 89.6398 27.9628H85.701V23.3022ZM63.9515 23.4814H69.2604C70.8017 23.4814 71.8293 24.557 71.8293 25.991C71.8293 27.4251 70.8017 28.5006 69.0892 28.5006H63.9515V23.4814ZM126.802 23.4814H132.111C133.652 23.4814 134.68 24.557 134.68 25.991C134.68 27.4251 133.652 28.5006 131.94 28.5006H126.802V23.4814ZM148.38 23.4814H153.689C155.231 23.4814 156.258 24.557 156.258 25.991C156.258 27.4251 155.231 28.5006 153.518 28.5006H148.38V23.4814ZM85.701 32.0858H91.1811C93.0649 32.0858 93.75 33.5198 93.75 34.5954C93.75 35.8501 92.8937 37.2842 91.1811 37.2842H85.701V32.0858ZM20.9664 32.0858H26.4466C28.3304 32.0858 29.0154 33.5198 29.0154 34.5954C29.0154 35.8501 28.1591 37.2842 26.4466 37.2842H20.9664V32.0858Z" fill="#051443"/>
</svg>
