<svg width="200" height="60" viewBox="0 0 200 60" fill="none" xmlns="http://www.w3.org/2000/svg">
<path d="M189.602 13.4209L183.838 20.9979H183.624L177.86 13.4209H173.59L182.13 23.9445V31.732H185.546V23.9445L194.086 13.4209H189.602ZM164.41 20.9979H154.376V13.4209H150.96V31.732H154.376V24.155H164.41V31.732H167.826V13.4209H164.41V20.9979ZM115.307 13.4209H112.105V26.0492L100.79 13.4209H97.8011V31.732H101.003V19.1037L112.318 31.732H115.307V13.4209ZM88.4075 28.5749H76.879V24.155H85.2051V20.9979H76.879V16.578H88.4075V13.4209H73.2496V31.732H88.4075V28.5749ZM55.7434 27.3121L49.9791 13.4209H45.9228L54.0355 31.732H57.0243L65.137 13.4209H61.0807L55.7434 27.3121ZM34.8213 31.732H38.2371V13.4209H34.8213V31.732ZM15.3936 24.9969H21.3713V28.1539C20.5174 28.5749 19.0229 28.7854 16.4611 28.7854C12.1912 28.7854 9.84284 26.6806 9.84284 22.4712C9.84284 18.2618 12.1912 16.1571 16.4611 16.1571C20.7309 16.1571 23.0793 17.4199 24.1467 18.4723V15.1047C22.8658 13.8419 19.8769 13 16.4611 13C11.5508 13 6 15.1047 6 22.4712C6 30.0482 11.5508 31.9424 16.4611 31.9424C19.4499 31.9424 22.6523 31.311 24.5737 30.0482V21.6293H15.3936V24.9969ZM123.634 22.6817C123.634 30.2587 129.184 32.1529 134.095 32.1529C137.51 32.1529 140.499 31.311 141.78 30.2587V26.4702C140.499 27.5225 138.364 28.7854 134.095 28.7854C129.825 28.7854 127.476 26.6806 127.476 22.4712C127.476 18.2618 129.825 16.1571 134.095 16.1571C138.364 16.1571 140.713 17.4199 141.78 18.4723V15.1047C140.499 14.0524 137.297 13.2105 134.095 13.2105C129.184 13 123.634 15.1047 123.634 22.6817ZM82.0028 38.467H79.2274V47.3068H80.2948V43.7288H82.0028C83.2837 43.7288 84.9916 43.3079 84.9916 40.9927C85.2051 38.6775 83.0702 38.467 82.0028 38.467ZM82.0028 42.8869H80.2948V39.5194H82.0028C82.8567 39.5194 83.9242 39.9403 83.9242 41.2032C83.9242 42.2555 83.2837 42.8869 82.0028 42.8869ZM90.7559 38.467L87.34 47.3068H88.621L89.475 44.9917H93.5313L94.3853 47.3068H95.6662L92.2503 38.467H90.7559ZM89.6884 44.1498L90.9694 40.9927C91.1829 40.5718 91.3964 39.9403 91.6099 39.5194C91.8234 39.9403 92.0368 40.5718 92.2503 40.9927L93.5313 44.1498H89.6884ZM105.06 40.9927C105.06 39.3089 103.779 38.6775 102.284 38.6775H99.082V47.5173H100.149V43.5184H102.071L103.992 47.5173H105.487L103.352 43.3079C103.992 43.0974 105.06 42.6765 105.06 40.9927ZM102.284 42.466H100.363V39.5194H102.071C102.498 39.5194 103.992 39.5194 103.992 40.9927C103.992 41.6241 103.565 42.466 102.284 42.466ZM109.33 47.3068H110.397V38.467H109.33V47.3068ZM118.723 42.6765L117.229 42.0451C116.588 41.8346 115.948 41.6241 115.948 40.5718C115.948 39.7299 116.375 39.0985 117.442 39.0985C118.083 39.0985 118.937 39.3089 119.15 40.1508L120.218 39.9403C119.791 38.6775 118.723 38.2566 117.442 38.2566C116.161 38.2566 114.667 38.888 114.667 40.7822C114.667 41.6241 115.094 42.2555 115.948 42.6765L118.083 43.7288C118.51 43.9393 118.937 44.1498 118.937 45.2021C118.937 46.044 118.296 46.6754 117.229 46.6754C115.948 46.6754 115.521 45.8335 115.307 45.4126L114.24 45.8335C114.453 46.465 115.094 47.7278 117.229 47.7278C119.791 47.7278 120.431 46.044 120.431 45.2021C120.431 43.5184 119.364 43.0974 118.723 42.6765Z" fill="#051443"/>
</svg>
