<svg width="200" height="60" viewBox="0 0 200 60" fill="none" xmlns="http://www.w3.org/2000/svg">
<path d="M99.9141 30.2703C99.9141 37.1892 104.904 42.8108 111.63 44.1081C111.63 44.1081 113.799 44.5405 115.535 44.5405C119.44 44.5405 123.129 43.2432 126.166 41.2973C126.166 41.2973 127.902 40.2162 127.902 39.1351L128.552 33.7297C126.6 38.7027 123.129 40.4324 120.959 41.5135C119.223 42.3784 117.054 43.027 115.101 43.027C112.064 43.027 108.809 41.2973 107.508 38.4865L107.291 38.2703C105.989 35.8919 105.121 33.0811 105.121 30.0541C105.121 27.027 105.989 24.4324 107.291 21.8378L107.508 21.6216C108.809 18.8108 112.064 17.0811 115.101 17.0811C117.054 17.0811 119.223 17.7297 120.959 18.5946C123.996 20.3243 126.383 23.1351 127.685 26.3784V21.6216C127.685 20.5405 125.949 19.2432 125.949 19.2432C122.912 17.0811 119.223 16 115.318 16C113.799 16 111.413 16.4324 111.413 16.4324C104.904 17.7297 99.9141 23.5676 99.9141 30.2703Z" fill="#051443"/>
<path d="M140.051 30.2703C140.051 37.1892 145.041 42.8108 151.766 44.1081C151.766 44.1081 153.936 44.5405 155.672 44.5405C159.577 44.5405 163.265 43.2432 166.303 41.2973C166.303 41.2973 168.038 40.2162 168.038 39.1351L168.689 33.7297C166.737 38.7027 163.265 40.4324 161.096 41.5135C159.36 42.3784 157.19 43.027 155.238 43.027C152.2 43.027 148.946 41.2973 147.644 38.4865H147.427C146.126 36.1081 145.258 33.2973 145.258 30.2703C145.258 27.2432 146.126 24.6486 147.427 22.0541L147.644 21.8378C148.946 19.027 152.2 17.2973 155.238 17.2973C157.19 17.2973 159.36 17.9459 161.096 18.8108C164.133 20.5405 166.52 23.3514 167.821 26.5946V21.6216C167.821 20.5405 166.086 19.2432 166.086 19.2432C163.048 17.0811 159.36 16 155.455 16C153.936 16 151.766 16.4324 151.766 16.4324C145.041 17.7297 140.051 23.5676 140.051 30.2703Z" fill="#051443"/>
<path d="M185.828 16H180.188C180.838 16.6486 181.272 17.7297 181.272 19.027V41.5135C181.272 42.8108 180.838 43.8919 180.188 44.5405H185.828C185.178 43.8919 184.744 42.8108 184.744 41.5135V19.027C184.744 17.7297 185.178 16.6486 185.828 16Z" fill="#051443"/>
<path d="M67.8048 16H59.7773C60.8621 16.6486 61.513 17.7297 61.513 19.027V35.8919C61.73 38.9189 63.8995 41.5135 66.503 42.8108C68.8896 43.8919 71.2761 44.5405 74.0965 44.5405C76.917 44.5405 79.5205 43.8919 81.6901 42.8108C84.5105 41.5135 86.4631 38.9189 86.6801 35.8919V19.027C86.6801 17.7297 87.331 16.6486 88.4157 16H83.6427C84.7275 16.6486 85.3783 17.7297 85.3783 19.027V35.8919C85.1614 37.8378 84.2936 39.3514 82.7748 40.4324C81.2561 41.5135 78.4357 42.5946 75.8322 42.5946C74.0965 42.5946 72.5778 42.1622 71.2761 41.7297H71.0591C68.4556 40.8649 66.503 38.4865 66.2861 35.8919V19.027C66.2861 17.7297 66.9369 16.6486 67.8048 16Z" fill="#051443"/>
<path d="M21.3766 38.7027C19.8579 36.3243 18.99 33.2973 18.99 30.2703C18.99 27.2432 19.8579 24.6486 21.1596 22.2703L21.3766 22.0541C22.6783 19.2432 25.9327 17.5135 28.7531 17.5135C30.7057 17.5135 32.8753 18.1622 34.394 19.027C37.4314 20.7568 39.601 23.5676 40.9027 26.8108V21.6216C40.9027 20.5405 39.1671 19.2432 39.1671 19.2432C36.3466 17.0811 32.6584 16 28.7531 16C27.4514 16 25.2818 16.4324 25.2818 16.4324C18.7731 17.7297 14 23.5676 14 30.2703C14 37.6216 19.6409 43.4595 26.5835 44.3243C26.5835 44.3243 28.1022 44.5405 28.9701 44.5405C33.0923 44.5405 36.9975 43.027 40.0349 40.6486L40.4688 40.2162C40.9027 39.7838 41.1197 39.1351 41.1197 38.4865V34.3784C41.1197 33.0811 41.7706 32 42.6384 31.3514H35.0449C35.9127 32 36.5636 33.0811 36.5636 34.3784V38.2703C36.5636 39.1351 36.3466 39.7838 35.6958 40.2162C35.0449 40.8649 32.6584 42.1622 32.6584 42.1622C31.5736 42.8108 30.0549 43.027 28.7531 43.027C25.4988 43.027 22.8953 41.2973 21.3766 38.7027Z" fill="#051443"/>
</svg>
