<svg width="200" height="60" viewBox="0 0 200 60" fill="none" xmlns="http://www.w3.org/2000/svg">
<path d="M161.72 14.0892C161.347 14.2316 161.347 14.2791 161.347 17.3329C161.347 20.5291 161.444 21.0512 161.979 21.0512C162.369 21.0512 162.482 20.6398 162.482 19.1841V18.0449H163.066C163.763 18.0449 164.331 18.567 164.996 19.817C165.58 20.9405 165.693 21.0512 166.163 21.0512C166.747 21.0512 166.763 20.6873 166.228 19.8962C165.953 19.5006 165.726 19.1208 165.726 19.0575C165.726 18.9943 165.531 18.7411 165.288 18.4879L164.866 18.0607L165.58 17.4278C166.261 16.8424 166.293 16.7791 166.293 15.9246C166.293 15.1493 166.228 14.9911 165.807 14.5797C165.353 14.1367 165.223 14.105 163.698 14.0259C162.79 13.9785 161.915 13.9943 161.72 14.0892ZM164.542 15.0544C165.093 15.2601 165.239 15.45 165.239 16.0987C165.239 16.431 165.142 16.6683 164.963 16.7474C164.493 16.9848 163.455 17.1272 162.952 17.0164C162.498 16.9215 162.482 16.874 162.482 15.9879C162.482 15.4025 162.563 15.0386 162.693 14.9911C163.05 14.8487 164.071 14.8803 164.542 15.0544ZM122.653 15.8139C121.632 16.1145 120.464 16.7474 119.913 17.317C118.242 18.9784 117.561 20.7031 117.561 23.1715C117.561 26.4151 118.842 28.3613 122.589 30.8929C124.47 32.1429 124.778 32.3645 124.859 32.4594C124.908 32.5069 125.41 32.855 125.978 33.2347C127.518 34.2632 129.448 36.1777 129.886 37.1113C130.178 37.76 130.243 38.1872 130.243 39.4847C130.259 41.3518 129.951 42.1904 128.913 43.203C127.859 44.2315 127.178 44.4847 125.426 44.4847C124.064 44.4847 123.789 44.4214 122.799 43.9783C122.199 43.6935 121.567 43.3454 121.421 43.1872C121.259 43.0448 121.015 42.8233 120.853 42.6967C119.896 42.0163 118.453 39.7695 117.74 37.8708C117.383 36.9214 116.994 36.5575 116.588 36.7948C116.41 36.9056 116.442 37.2695 116.832 40.2758C117.415 44.7695 117.561 45.7663 117.642 45.9087C117.869 46.2568 118.372 46.0353 118.599 45.4973C118.972 44.6429 119.459 44.5005 120.594 44.9277C122.605 45.6872 124.762 46.2093 125.913 46.2093C128.329 46.2093 130.373 45.4182 131.994 43.8359C133.211 42.6492 133.827 41.5258 134.184 39.8803C134.621 37.8866 134.411 36.067 133.551 34.2948C133.081 33.3296 130.973 31.0986 129.854 30.3708C128.475 29.4689 124.032 26.3202 123.286 25.7031C120.788 23.6778 120.253 20.5132 122.086 18.6303C123.01 17.681 123.691 17.412 125.216 17.412C126.383 17.412 126.659 17.4753 127.713 17.9658C129.919 19.0101 131.232 20.6715 132.238 23.7094C132.627 24.8645 132.724 25.0227 133.016 24.9752C133.324 24.9278 133.373 24.8328 133.357 24.1366C133.34 23.0291 133 18.8993 132.757 17.0955C132.594 15.7822 132.529 15.5924 132.254 15.5924C132.059 15.5924 131.8 15.8297 131.573 16.2253C131.265 16.7949 131.135 16.8582 130.535 16.9057C130.065 16.9373 129.529 16.8265 128.848 16.5417C126.318 15.5133 124.486 15.2917 122.653 15.8139ZM145.033 15.8139C142.714 16.4943 141.06 18.1398 140.249 20.6082C139.811 21.9689 139.811 24.6113 140.265 25.7822C140.979 27.5702 142.406 29.1683 144.676 30.6873C149.525 33.9309 151.601 35.6872 152.265 37.1113C152.784 38.2189 152.817 40.7189 152.314 41.779C151.86 42.7758 151.228 43.4562 150.255 43.9942C149.492 44.4214 149.298 44.4688 147.854 44.4688C146.411 44.4688 146.168 44.4214 145.179 43.9625C143.849 43.3613 142.6 42.2537 141.66 40.8454C140.93 39.7537 140.054 38.029 139.876 37.317C139.778 36.8898 139.276 36.6049 138.968 36.7948C138.789 36.9056 138.822 37.3644 139.211 40.2758C139.341 41.2252 139.551 42.8549 139.697 43.8992C139.827 44.9277 139.989 45.8296 140.038 45.9087C140.249 46.2568 140.751 46.0353 140.979 45.4973C141.4 44.548 141.741 44.5163 143.93 45.2283C146.2 45.9878 147.254 46.2093 148.455 46.2093C149.606 46.2093 151.309 45.8138 152.411 45.2916C153.368 44.8328 155.136 43.2663 155.558 42.491C156.725 40.3391 157.049 38.298 156.579 36.1619C156.012 33.5986 154.26 31.6683 149.752 28.6461C145.503 25.798 144.173 24.548 143.606 22.8866C142.892 20.7822 143.703 18.7253 145.6 17.7601C146.525 17.2854 148.503 17.2696 149.59 17.7284C152.006 18.7411 153.644 20.5924 154.455 23.2664C154.828 24.5164 155.071 24.9278 155.428 24.9278C155.703 24.9278 155.752 24.817 155.736 24.2158C155.72 23.0923 155.347 18.7411 155.136 17.0955C154.958 15.7822 154.893 15.5924 154.633 15.5924C154.357 15.5924 154.001 16.0038 153.628 16.7316C153.466 17.0639 152.282 16.9689 151.147 16.5259C148.471 15.4816 146.865 15.2917 145.033 15.8139ZM44.0661 15.9088C41.6498 16.336 39.6389 17.412 37.5631 19.4056C36.882 20.086 36.3144 20.6715 36.3144 20.7348C36.3144 20.8139 36.055 21.2411 35.7306 21.6999C32.4872 26.3993 32.0818 33.7727 34.7901 38.8834C35.8279 40.8613 37.0766 42.3011 38.9092 43.6302C43.3526 46.8581 49.6772 47.0796 55.7261 44.1999C57.6235 43.3138 57.5262 43.6619 57.5911 37.491C57.6397 32.586 57.6559 32.1746 57.9478 31.6999C58.2722 31.1936 59.1965 30.7031 59.829 30.7031C60.0722 30.7031 60.1533 30.5923 60.1533 30.3075C60.1533 30.086 60.056 29.9119 59.9587 29.9119C56.0018 29.8486 50.3259 29.9436 50.2124 30.0543C49.9529 30.3075 50.2286 30.7031 50.6502 30.7031C51.2665 30.7031 52.6611 31.1936 52.953 31.51C53.472 32.0638 53.6503 33.7569 53.6666 37.9499C53.6666 42.7442 53.6503 42.8075 52.2719 43.4404C47.9258 45.4499 43.385 44.4056 40.4822 40.703C38.5199 38.2189 37.774 35.5448 37.774 31.0354C37.774 27.317 38.1632 25.1809 39.2821 22.7917C41.4876 18.0924 46.8717 16.0829 51.3962 18.2981C51.7043 18.4405 52.4827 19.0734 53.099 19.6905C54.2342 20.8139 54.2666 20.8772 56.0667 24.5006C56.2451 24.8803 56.4072 25.0069 56.6505 24.9752C56.9748 24.9278 56.991 24.8487 56.9586 22.2379C56.9424 20.7506 56.8937 18.6778 56.8289 17.6019C56.7153 15.7348 56.6991 15.6715 56.3424 15.6715C56.0991 15.6715 55.8396 15.8772 55.5477 16.3044C55.1423 16.9215 55.0937 16.9373 54.2342 16.9373C53.7314 16.9373 52.8233 16.7633 52.0935 16.5259C49.4988 15.7031 46.5311 15.4658 44.0661 15.9088ZM61.6615 16.3993C61.5318 16.7474 61.7102 16.8424 62.9751 17.1746C64.3535 17.5227 64.84 17.9183 65.0346 18.836C65.0995 19.2316 65.1644 22.8234 65.1806 26.8265C65.1806 34.4847 65.3428 37.9182 65.7806 39.4847C66.1536 40.8138 66.8834 42.2695 67.6456 43.2189C68.278 44.01 69.9484 45.165 71.0187 45.5606C73.3701 46.415 77.3271 46.4467 79.5326 45.6239C81.0894 45.0543 81.7056 44.6745 82.6949 43.6935C83.9436 42.4594 84.6247 41.2252 85.1436 39.1682C85.468 37.8233 85.5004 37.2695 85.6139 28.8835C85.6788 24.0101 85.8085 19.7379 85.8896 19.3898C86.1977 18.0765 86.7329 17.586 88.3546 17.1588C89.2141 16.9215 89.3438 16.8265 89.3114 16.5576C89.2627 16.2253 89.1979 16.2253 84.722 16.2253C80.3921 16.2253 80.1812 16.2411 80.1812 16.5259C80.1812 16.7474 80.4407 16.9057 81.2353 17.1588C83.8949 18.0449 83.9111 18.1082 83.9111 28.567C83.9111 36.3201 83.8138 37.9974 83.23 39.7695C82.6624 41.5258 81.4624 42.9024 79.8893 43.5986C79.419 43.8043 78.4298 44.0575 77.6676 44.1682C74.1648 44.6587 71.3268 43.3138 70.1592 40.5923C69.4294 38.9151 69.397 38.3771 69.397 28.4404C69.397 16.9689 69.2186 17.8076 71.7647 17.1272C72.6404 16.8898 72.8836 16.7633 72.8836 16.5259C72.8836 16.2411 72.6566 16.2253 67.3212 16.1778C62.3751 16.1462 61.7588 16.162 61.6615 16.3993ZM90.706 16.3835C90.5601 16.7474 90.7709 16.9057 91.6953 17.0955C92.9115 17.3487 93.5602 17.8076 93.8683 18.6778C94.0792 19.2949 94.1116 20.8772 94.1278 30.8613C94.1278 41.4625 94.1116 42.3961 93.8359 43.1397C93.5116 44.0416 93.2683 44.2157 91.6953 44.6112C90.9169 44.8169 90.7222 44.9277 90.7222 45.1809C90.7222 45.4973 90.8358 45.4973 101.507 45.4973H112.291L112.469 44.8644C112.583 44.5163 112.793 43.6619 112.939 42.9657C113.102 42.2695 113.296 41.4783 113.377 41.2252C113.669 40.26 114.01 38.4404 113.912 38.298C113.767 38.0765 113.248 38.1081 113.053 38.3296C112.956 38.4404 112.583 39.1208 112.21 39.8328C111.399 41.3518 110.215 42.6176 109.161 43.0606C107.766 43.6461 105.869 43.8834 102.69 43.8834C99.2848 43.8676 98.7334 43.7568 98.3604 42.9815C97.9874 42.1904 97.9712 31.4784 98.3442 31.1778C98.5388 31.0195 99.5118 30.9879 102.544 31.0512C106.29 31.1303 106.534 31.1461 107.085 31.4784C107.782 31.9056 108.074 32.4119 108.545 34.01C108.869 35.086 108.934 35.2126 109.291 35.2126H109.696L109.745 30.1967C109.777 25.2126 109.777 25.1809 109.437 25.086C108.966 24.9278 108.869 25.0702 108.496 26.4784C108.123 27.8708 107.718 28.5195 106.972 28.9309C106.518 29.1683 105.934 29.1999 102.317 29.1999H98.182L98.1334 24.0101C98.101 19.5955 98.1334 18.7569 98.3442 18.3613L98.6037 17.8867H103.031C107.977 17.8867 108.674 17.9974 109.631 18.8993C110.215 19.4531 110.377 19.7854 110.75 21.1936C111.026 22.2537 111.318 22.6018 111.804 22.412C112.08 22.317 112.096 22.0955 111.999 19.374C111.934 17.7601 111.853 16.3677 111.804 16.2886C111.739 16.2095 107.458 16.1462 101.247 16.1462C92.2629 16.1462 90.7871 16.1778 90.706 16.3835Z" fill="#051443"/>
</svg>
