<svg width="200" height="60" viewBox="0 0 200 60" fill="none" xmlns="http://www.w3.org/2000/svg">
<path d="M188.297 29.7814C188.297 20.8946 180.701 14 171.374 14C162.341 14 154.406 20.5766 154.406 29.3001C154.406 37.5304 160.639 44.1224 169.033 45.171V40.1895C163.542 39.2287 159.391 34.8712 159.391 29.6285C159.391 23.6844 164.726 18.8577 171.31 18.8577C177.893 18.8577 183.23 23.6844 183.23 29.6285C183.23 34.8316 179.146 39.1599 173.716 40.1655V45.1555C181.774 44.1156 188.297 37.7676 188.297 29.7814ZM134.522 40.4886C129.344 40.4886 124.934 37.5115 123.291 33.3396H117.99C119.744 40.5264 126.633 45.3205 134.817 45.3205C136.715 45.3205 138.903 45.1229 140.717 44.6416C144.815 43.5655 149.288 40.7379 149.288 36.2755V28.353H134.471L134.454 33.3396H144.549V35.6034C144.549 38.1045 141.034 39.5518 138.88 40.0589C137.723 40.3322 136.235 40.4886 135.039 40.4886H134.522ZM144.561 23.1206C142.313 20.6436 138.846 19.0571 134.959 19.0571C128.758 19.0571 123.631 23.1034 122.812 28.353H117.617C118.296 20.2053 126.144 14.1994 135.024 14.1994C140.308 14.1994 145.049 16.2879 148.246 19.6484L144.561 23.1206ZM88.8132 14.8543H84.0133V44.6553H88.7323V22.3866L108.073 44.6553H111.588V41.0318L88.8132 14.8543ZM111.588 14.8543H106.867V29.3277L111.588 34.3589V14.856V14.8543ZM70.1379 35.4144L74.4911 44.6553H80.1665L65.9287 14.856H60.8132L60.8099 14.8646L67.9386 30.6667H58.4666L60.941 25.5168L58.3631 19.9165L46.3665 44.6553H51.6697L56.1573 35.4178L70.1395 35.4161L70.1379 35.4144ZM15.7578 14.856H11V44.6553H15.7174V24.1674L26.429 42.3588L29.1574 37.7177L15.7594 14.856H15.7578ZM28.96 28.8412L31.6755 33.4153L37.1373 24.1674V44.6536H41.8434V14.856H37.0418L28.96 28.8412Z" fill="#051443"/>
</svg>
