<svg width="24" height="24" viewBox="0 0 24 24" fill="none" xmlns="http://www.w3.org/2000/svg">
<path fill-rule="evenodd" clip-rule="evenodd" d="M17.7365 10.5183C17.7365 14.5048 14.5048 17.7365 10.5183 17.7365C6.53173 17.7365 3.3 14.5048 3.3 10.5183C3.3 6.53173 6.53173 3.3 10.5183 3.3C14.5048 3.3 17.7365 6.53173 17.7365 10.5183ZM15.9866 17.0498C14.507 18.2899 12.5998 19.0365 10.5183 19.0365C5.81376 19.0365 2 15.2228 2 10.5183C2 5.81376 5.81376 2 10.5183 2C15.2228 2 19.0365 5.81376 19.0365 10.5183C19.0365 12.6732 18.2363 14.6413 16.9168 16.1416L22.0869 21.3117L21.1677 22.2309L15.9866 17.0498Z" fill="#051443"/>
</svg>
