<svg width="200" height="60" viewBox="0 0 200 60" fill="none" xmlns="http://www.w3.org/2000/svg">
<path d="M147.224 51.3042L131.572 8.02856L131.561 8H131.252L128.029 16.893L122.162 33.0829L122.148 33.0701C120.114 31.2681 117.245 30.1415 113.632 29.722L112.53 29.6078L113.623 29.467C119.582 28.3917 123.587 24.6123 123.587 20.0589C123.587 13.8148 117.739 9.45641 109.362 9.45641H91.933V9.77251H96.9976V42.037L84.6975 8.02856L84.6867 8H84.3779L81.1548 16.893L68.7233 51.193L68.6468 51.2018C68.4343 51.2281 68.2242 51.2491 68.0163 51.2648C67.7035 51.2895 67.3926 51.3042 67.0808 51.3042H54.5199L78.3965 9.7725L78.5739 9.46034H49.372V22.308H49.6818C49.7367 16.0501 53.3658 9.7725 61.3838 9.7725H71.057L47 51.6154H79.4094V39.3064H79.0995C79.0574 44.7607 75.9784 49.9414 69.2832 51.1112L69.0704 51.1477L74.1693 37.073H88.4531L93.6 51.3042H88.5227V51.6154H108.451V51.3042H103.352V29.8372H109.235C115.222 29.8372 118.656 32.5236 118.656 37.205V41.0129C118.656 41.4324 118.685 42.0459 118.716 42.5589V42.5776L115.554 51.3023H111.423V51.6134H119.974V51.3023H115.887L118.767 43.3575C118.773 43.4343 118.776 43.4806 118.776 43.4806L118.855 44.1965L118.932 44.6702C119.412 47.5997 120.528 49.7533 122.247 51.0709L122.494 51.2511C123.8 52.1629 125.423 52.6248 127.32 52.6248C129.834 52.6248 131.509 51.9955 132.893 50.5145L132.711 50.3432C131.437 51.5248 130.367 52.0034 129.027 52.0034C126.743 52.0034 125.548 49.2215 125.548 46.4781V41.1429C125.56 39.819 125.353 38.5023 124.937 37.2463L124.88 37.0809V37.075H135.328L140.475 51.3062H135.397V51.6174H152.642V51.3062L147.224 51.3042ZM74.283 36.7618L81.3195 17.348L88.3403 36.7618H74.283ZM103.355 29.5251V9.7725H107.846C113.845 9.7725 117.012 13.3539 117.012 20.1259C117.012 27.3282 115.194 29.5251 109.235 29.5251H103.355ZM124.758 36.7618L124.728 36.685C124.263 35.5494 123.588 34.5133 122.736 33.6324L122.442 33.337L122.411 33.3074L128.19 17.348L135.211 36.7618H124.758Z" fill="#051443"/>
</svg>
