<svg width="200" height="60" viewBox="0 0 200 60" fill="none" xmlns="http://www.w3.org/2000/svg">
<path fill-rule="evenodd" clip-rule="evenodd" d="M52.2684 47.5767C57.8339 47.5767 60.4179 44.1976 61.213 42.8062C61.8093 41.8123 62.8032 40.0234 63.5982 38.2345C64.1945 36.6443 64.7909 36.048 65.5859 36.048C66.1822 36.048 66.5798 36.6443 66.5798 37.4394C66.5798 37.8369 65.3872 43.9988 65.3872 44.3964C65.1884 45.9865 64.7909 46.7816 64.3933 47.3779C64.1945 47.5767 63.797 47.7754 63.3995 48.173C59.8216 50.1607 56.045 51.3533 52.0696 51.3533C40.1434 51.3533 31 42.4086 31 30.6812C31 22.1341 35.5717 14.7797 43.125 11.2018C44.5163 10.6055 47.8954 8.81656 53.2622 9.01533C58.629 9.2141 62.6044 12.1956 63.5982 12.792C65.3872 13.7858 65.1884 15.5747 65.1884 16.171C65.3872 18.3575 65.3872 20.9415 65.3872 21.3391C65.3872 22.7304 64.9896 23.3268 64.3933 23.3268C63.797 23.3268 63.3995 22.9292 62.8032 21.3391C60.6167 15.5747 57.0388 12.5932 52.6659 12.5932C47.8954 12.3944 43.5225 15.376 41.336 19.9477C40.1434 22.7304 39.5471 25.9108 39.5471 29.6874C39.5471 36.2468 41.1373 41.0173 44.5163 44.1976C47.1004 46.7816 49.6844 47.5767 52.2684 47.5767ZM77.7109 11.5993V23.7243C77.7109 24.5194 77.9097 24.9169 78.3072 24.9169C78.7047 24.9169 78.9035 24.7181 79.4998 24.5194C80.8912 23.5255 82.8789 23.128 84.8666 23.128C87.0531 23.128 89.2395 23.7243 90.6309 24.7181C91.6248 25.5132 92.6186 26.7058 93.0162 28.0972C93.4137 29.0911 93.4137 29.8862 93.4137 31.8739C93.4137 33.6628 93.6125 44.1976 93.6125 44.1976C93.6125 46.5828 94.01 47.3779 95.4014 48.3717C95.9977 48.7693 96.1965 48.9681 96.1965 49.1668C96.1965 49.7631 94.8051 49.9619 92.4199 49.9619H86.0592C84.4691 49.9619 83.8728 49.7631 83.8728 49.3656C83.8728 48.9681 84.0715 48.7693 84.8666 48.173C85.8605 47.3779 86.258 46.384 86.258 44.9927C86.258 44.7939 86.0592 30.4825 86.0592 30.4825C86.0592 27.8985 83.8728 27.3021 82.2826 27.3021C80.6924 27.3021 79.1023 28.0972 78.3072 29.2898C77.9097 29.8862 77.9097 31.0788 77.9097 32.2714V44.3964C77.9097 45.589 78.1084 46.384 78.3072 46.9804C78.506 47.3779 78.7047 47.7754 79.4998 48.173C80.4937 48.7693 80.8912 49.1668 80.8912 49.3656C80.8912 49.9619 80.0961 50.1607 78.9035 50.1607H70.3564C68.965 50.1607 68.3687 49.9619 68.3687 49.5644C68.3687 48.9681 69.3626 48.5705 69.7601 48.173C70.1576 47.7754 70.5552 46.9804 70.5552 46.1853V19.1526C70.5552 16.5686 69.9589 16.171 69.3626 15.7735C68.7663 15.376 68.3687 14.9784 68.3687 14.5809C68.3687 14.3821 68.5675 13.9846 69.3626 13.7858C70.5552 13.3883 72.7416 12.5932 73.5367 12.1956C75.5244 11.003 75.922 9.81041 76.9158 9.81041C77.7109 9.41287 77.7109 10.6055 77.7109 11.5993ZM108.321 11.4006C108.321 11.4006 108.52 43.005 108.52 43.4025C108.52 45.3902 108.719 46.384 109.117 46.9804C109.514 47.5767 111.502 47.9742 111.303 48.9681C111.303 49.3656 110.11 49.3656 109.117 49.3656H100.768C98.9793 49.3656 98.3829 49.1668 98.3829 48.7693C98.3829 48.3717 99.3768 47.7754 99.9731 47.3779C100.768 46.7816 100.967 46.384 100.967 44.9927L100.768 17.1649C100.768 16.171 100.371 15.376 99.5756 14.7797C98.9793 14.3821 98.5817 13.9846 98.7805 13.587C98.9793 13.1895 99.5756 12.9907 100.172 12.792C100.967 12.5932 101.961 12.1956 102.756 11.7981C103.75 11.4006 104.147 11.003 105.539 10.0092C106.135 9.61164 106.334 9.2141 106.93 9.2141C108.123 9.41287 108.321 10.0092 108.321 11.4006ZM162.188 13.7858C163.579 14.1833 164.375 14.5809 164.375 15.7735C164.375 16.9661 163.182 18.5563 160.797 19.7489C159.206 20.7427 157.219 21.5378 156.225 21.5378C155.827 21.5378 154.635 21.5378 154.635 20.544C154.635 20.1464 155.032 19.5501 156.225 18.9538C157.02 18.5563 157.219 18.3575 157.418 17.96C157.616 17.5624 157.815 17.1649 157.815 16.5686C157.815 15.9723 157.616 15.376 157.02 14.7797C156.424 14.1833 156.225 13.7858 156.225 13.587C156.225 12.5932 157.418 12.5932 158.213 12.792C159.206 12.9907 161.989 13.7858 162.188 13.7858ZM162.983 37.8369C164.176 37.8369 167.356 38.0357 167.952 37.4394C168.35 37.0419 168.35 36.6443 168.35 35.8492C168.35 29.4886 163.977 23.128 156.225 23.128C147.877 23.128 143.106 30.88 143.106 36.6443C143.106 44.1976 149.268 50.3594 156.622 50.3594C160.598 50.3594 164.375 48.7693 166.76 45.9865C167.356 45.3902 167.555 44.7939 167.555 44.3964C167.555 43.8 166.959 43.2037 166.362 43.2037C165.965 43.2037 165.567 43.4025 164.772 43.9988C163.579 44.9927 160.399 47.3779 157.219 46.7816C151.057 45.3902 151.057 38.4333 151.454 37.6382C151.454 37.8369 162.586 37.8369 162.983 37.8369ZM151.454 32.6689C152.051 30.4825 152.846 26.1095 156.225 26.1095C158.809 26.1095 160.2 29.4886 160.399 32.8677C160.399 33.6628 160.598 34.4579 158.61 34.4579H153.045C151.057 34.6566 151.057 33.8615 151.454 32.6689ZM127.205 23.128C117.266 23.128 112.893 30.88 112.893 36.4456C112.893 43.4025 117.664 50.5582 126.807 50.5582C134.758 50.5582 140.721 44.5951 140.721 36.8431C140.522 29.0911 134.559 23.128 127.205 23.128ZM127.403 47.3779C122.434 47.3779 121.043 42.2099 121.043 36.6443C121.043 29.4886 124.223 26.1095 126.608 26.1095C132.174 26.1095 132.969 32.2714 132.969 36.6443C132.77 43.9988 129.987 47.3779 127.403 47.3779Z" fill="#051443"/>
</svg>
