<svg width="100" height="42" viewBox="0 0 100 42" fill="none" xmlns="http://www.w3.org/2000/svg">
<g clip-path="url(#clip0_168_449)">
<path d="M9.3703 41.6458C6.28543 41.6458 3.95249 40.7781 2.3715 39.0429C0.790498 37.2691 0 34.7434 0 31.4657V29.152H6.0155V31.9284C6.0155 34.5506 7.11449 35.8616 9.31246 35.8616C10.3922 35.8616 11.2019 35.5531 11.7418 34.9362C12.3202 34.2806 12.6094 33.2395 12.6094 31.8127C12.6094 30.1161 12.2238 28.6315 11.4526 27.359C10.6814 26.0479 9.25461 24.4862 7.17233 22.6738C4.55019 20.3602 2.71854 18.2779 1.6774 16.4269C0.636255 14.5375 0.115683 12.4166 0.115683 10.0644C0.115683 6.86384 0.925461 4.39594 2.54502 2.6607C4.16458 0.886901 6.51679 0 9.60166 0C12.648 0 14.9423 0.886901 16.4848 2.6607C18.0658 4.39594 18.8563 6.9024 18.8563 10.1801V11.8575H12.8408V9.77519C12.8408 8.387 12.5709 7.38441 12.031 6.76744C11.4911 6.1119 10.7006 5.78414 9.6595 5.78414C7.53865 5.78414 6.47823 7.07593 6.47823 9.6595C6.47823 11.1248 6.86384 12.4937 7.63506 13.7662C8.44484 15.0388 9.89087 16.5812 11.9732 18.3935C14.6339 20.7072 16.4655 22.8088 17.4681 24.6983C18.4707 26.5877 18.972 28.805 18.972 31.35C18.972 34.6662 18.1429 37.2113 16.4848 38.9851C14.8652 40.7589 12.4937 41.6458 9.3703 41.6458Z" fill="#051443"/>
<path d="M33.8413 41.6458C30.7178 41.6458 28.327 40.7589 26.6689 38.9851C25.0108 37.2113 24.1817 34.7048 24.1817 31.4657V10.1801C24.1817 6.94096 25.0108 4.4345 26.6689 2.6607C28.327 0.886901 30.7178 0 33.8413 0C36.9647 0 39.3555 0.886901 41.0136 2.6607C42.6717 4.4345 43.5008 6.94096 43.5008 10.1801V31.4657C43.5008 34.7048 42.6717 37.2113 41.0136 38.9851C39.3555 40.7589 36.9647 41.6458 33.8413 41.6458ZM33.8413 35.8616C36.0392 35.8616 37.1382 34.5313 37.1382 31.8706V9.77519C37.1382 7.11449 36.0392 5.78414 33.8413 5.78414C31.6433 5.78414 30.5443 7.11449 30.5443 9.77519V31.8706C30.5443 34.5313 31.6433 35.8616 33.8413 35.8616Z" fill="#051443"/>
<path d="M54.5349 20.3602L47.5361 0.578413H54.2457L58.5259 13.6506H58.6416L63.0376 0.578413H69.0531L62.0543 20.3602L69.4001 41.0674H62.6905L58.0632 26.9541H57.9475L53.2045 41.0674H47.189L54.5349 20.3602Z" fill="#051443"/>
<path d="M80.2887 23.8306L72.5959 0.578413H79.3633L83.7014 15.4436H83.8171L88.1552 0.578413H94.3442L86.6513 23.8306V41.0674H80.2887V23.8306Z" fill="#051443"/>
<path d="M93.8688 34.9362H100V41.0674H93.8688V34.9362Z" fill="#051443"/>
</g>
<defs>
<clipPath id="clip0_168_449">
<rect width="100" height="42" fill="white"/>
</clipPath>
</defs>
</svg>
